/* XPM */
static const char *ALLOW_LETTERS_24_XPM[] = {
"24 24 5 1",
"  c None",
". c #000000",
"# c #E02020",
"+ c #60B0FF",
"= c #FFFF90",
"  ....................  ",
" ...................... ",
"..........#.............",
".........#.#............",
".........#.#............",
".........#.#............",
"........#...#...........",
"........#####...........",
"........#...#...........",
".......#.....#..........",
".......#.....#..........",
".................===....",
"................=...=...",
"....+++++......=.....=..",
"....+....+.....=........",
"....+....+.....=........",
"....+....+.....=........",
"....++++++.....=.....=..",
"....+....+......=...=...",
"....+....+.......===....",
"....+....+..............",
"....+++++...............",
" ...................... ",
"  ....................  "
};
