/* XPM */
static const char *ALLOW_LETTERS_16_XPM[] = {
"16 16 4 1",
"  c None",
". c #000000",
"# c #E02020",
"+ c #60B0FF",
" .............. ",
"................",
"........+++++...",
"........+....+..",
"........+....+..",
".....#..+....+..",
"....#.#.++++++..",
"....#.#.+....+..",
"....#.#.+....+..",
"...#...#+....+..",
"...#####+++++...",
"...#...#........",
"..#.....#.......",
"..#.....#.......",
"................",
" .............. "
};
