/* XPM */
static const char *AXON_CONNS_24_XPM[] = {
"24 24 3 1",
"  c None",
". c #000000",
"# c #60B0FF",
"  ....................  ",
" ...................... ",
"........................",
"........................",
"........................",
".....###................",
".....###################",
".....###................",
"......#.##..............",
"......#...##............",
".......#....##..........",
".......#......##........",
"........#.......##......",
"........#.........##....",
".........#..........##..",
".........#............##",
"..........#.............",
"..........#.............",
"...........#............",
"...........#............",
"............#...........",
"............#...........",
" ............#......... ",
"  ...........#........  "
};
