/* XPM */
static const char *AXON_CONNS_16_XPM[] = {
"16 16 3 1",
"  c None",
". c #000000",
"# c #60B0FF",
" .............. ",
"................",
"................",
"...###..........",
"...#############",
"...###..........",
"....#.##........",
"....#...##......",
".....#....##....",
".....#......##..",
"......#.......##",
"......#.........",
".......#........",
".......#........",
"........#.......",
" .......#...... "
};
