/* XPM */
static const char *CLIP_24_XPM[] = {
"24 24 2 1",
"  c None",
"# c #00761D",
"      ##                ",
"      ##                ",
"      ##                ",
"      ##                ",
"      ##                ",
"      ##                ",
"##############          ",
"############### ## ## ##",
"      ##                ",
"      ##               #",
"      ##               #",
"      ##                ",
"      ##               #",
"      ##               #",
"       #                ",
"                       #",
"       #               #",
"       #                ",
"                       #",
"       #               #",
"       #                ",
"                       #",
"       #               #",
"       # ## ## ## ## ## "
};
