/* XPM */
static const char *CLIP_16_XPM[] = {
"16 16 2 1",
"  c None",
"# c #00761D",
"   ##           ",
"   ##           ",
"   ##           ",
"########        ",
"######## ## ## #",
"   ##          #",
"   ##           ",
"   ##          #",
"               #",
"    #           ",
"    #          #",
"               #",
"    #           ",
"    #          #",
"               #",
"    ## ## ## ## "
};
