/* XPM */
static const char *CONN_SELECTED_16_XPM[] = {
"16 16 4 1",
"  c None",
". c #000000",
"# c #60B0FF",
"+ c #FFFF90",
" .............. ",
"................",
"..#####.........",
"..#...#.........",
"..#.#.##........",
"..#...#.#.......",
"..#####..#......",
"....+.....#.....",
".....+.....#....",
"......+..+++++..",
".......+.+...+..",
"........++.+.+..",
".........+...+..",
".........+++++..",
"................",
" .............. "
};
