/* XPM */
static const char *CONN_SELECTED_24_XPM[] = {
"24 24 4 1",
"  c None",
". c #000000",
"# c #60B0FF",
"+ c #FFFF90",
"  ....................  ",
" ...................... ",
"..##########............",
"..##########............",
"..##......##............",
"..##......##............",
"..##..##..###...........",
"..##..##..##.#..........",
"..##......##..#.........",
"..##......##...#........",
"..##########....#.......",
"..##########.....#......",
"......+.....++++++++++..",
".......+....++++++++++..",
"........+...++......++..",
".........+..++......++..",
"..........+.++..++..++..",
"...........+++..++..++..",
"............++......++..",
"............++......++..",
"............++++++++++..",
"............++++++++++..",
" ...................... ",
"  ....................  "
};
