/* XPM */
static const char *CONN_FIELDS_16_XPM[] = {
"16 16 6 1",
"  c None",
". c #000000",
"= c #008000",
"$ c #055505",
"% c #0050A0",
"# c #003870",
" .............. ",
".....%%%%%%%%%..",
"....%#......%%..",
"...%%%%%%%%%.%..",
"...%#......%%...",
"...%%%%%%%%%....",
"....===========.",
"...=$........==.",
"..=.$.......=.=.",
".===========..=.",
".=..$......=..=.",
".=..$$$$$$$=$$=.",
".=.$.......=.=..",
".=$........==...",
".===========....",
" .............. "
};
