/* XPM */
static const char *COPY_DISABLED_24_XPM[] = {
"24 24 3 1",
"  c None",
"# c #BDBDBD",
". c #F7F7F7",
"  #########             ",
"  #.......##            ",
"  #.......#.#           ",
"  #.......#..#          ",
"  #.......#...#         ",
"  #.....#########       ",
"  #.....#.......##      ",
"  #.....#.......#.#     ",
"  #.....#.......#..#    ",
"  #.....#.......#...#   ",
"  #.....#.......######  ",
"  #.....#............#  ",
"  #.....#............#  ",
"  #.....#............#  ",
"  #.....#............#  ",
"  #.....#............#  ",
"  #.....#............#  ",
"  #.....#............#  ",
"  #######............#  ",
"        #............#  ",
"        #............#  ",
"        #............#  ",
"        #............#  ",
"        ##############  "
};
