/* XPM */
static const char *COPY_16_XPM[] = {
"16 16 3 1",
"  c None",
"# c #809191",
". c #FFFFFF",
" #######        ",
" #.....##       ",
" #.....#.#      ",
" #...#######    ",
" #...#.....##   ",
" #...#.....#.#  ",
" #...#.....#### ",
" #...#........# ",
" #...#........# ",
" #...#........# ",
" #...#........# ",
" #...#........# ",
" #####........# ",
"     #........# ",
"     #........# ",
"     ########## ",
};
