/* XPM */
static const char *DEN_CONNS_16_XPM[] = {
"16 16 6 1",
"  c None",
". c #000000",
"# c #30A030",
"= c #FFFF90",
"+ c #60B0FF",
"- c #E02020",
" ......-....... ",
".......-........",
"........-.......",
"........-.......",
".........-......",
"++.......-......",
"..++......-.....",
"....++....-.....",
"......++...-....",
"........++.-....",
"..........###...",
"==========###...",
"..........###...",
"................",
"................",
" .............. "
};
