/* XPM */
static const char *DESELECT_DISABLED_XPM[] = {
"13 13 3 1",
"  c None",
"# c #777777",
". c #B7B7B7",
" ##       ## ",
"#..#     #..#",
"#...#   #...#",
" #...# #...# ",
"  #...#...#  ",
"   #.....#   ",
"    #...#    ",
"   #.....#   ",
"  #...#...#  ",
" #...# #...# ",
"#...#   #...#",
"#..#     #..#",
" ##       ## "
};
