/* XPM */
static const char *EXPORT_IMAGE_24_XPM[] = {
"24 24 7 1",
"  c None",
". c #000000",
"# c #567F7F",
"= c #FFFFFF",
"@ c #809191",
"$ c #9EB2B2",
"+ c #D3E5E5",
"                        ",
"                        ",
"                        ",
"#####################   ",
"#===================#   ",
"#=.................=#   ",
"#=................$=#   ",
"#=................@$#   ",
"#=................@=@   ",
"#=........$$$$$@@@@==@  ",
"#=........$+++=+======@ ",
"#=........+$+=+========@",
"#=........$+++=+======@ ",
"#=........$$$$$@@@@==@  ",
"#=................@=@   ",
"#=................@$#   ",
"#=................$=#   ",
"#=.................=#   ",
"#===================#   ",
"#####################   ",
"                        ",
"                        ",
"                        ",
"                        "
};
