/* XPM */
static const char *GAP_JUNCTIONS_24_XPM[] = {
"24 24 5 1",
"  c None",
". c #000000",
"# c #FFFF00",
"+ c #60B0FF",
"= c #E02020",
"  ....................  ",
" ...................... ",
"........................",
"........................",
"....+++.................",
"....+++.................",
"....+++.................",
".......#................",
"........#...............",
".........#..............",
"..........#.............",
"...........#............",
"............#...........",
".............#..........",
"..............#.........",
"...............#........",
"................#.......",
".................===....",
".................===....",
".................===....",
"........................",
"........................",
" ...................... ",
"  ....................  "
};
