/* XPM */
static const char *GAP_JUNCTIONS_16_XPM[] = {
"16 16 5 1",
"  c None",
". c #000000",
"# c #FFFF00",
"+ c #60B0FF",
"= c #E02020",
" .............. ",
"................",
"..+++...........",
"..+++...........",
"..+++...........",
".....#..........",
"......#.........",
".......#........",
"........#.......",
".........#......",
"..........#.....",
"...........===..",
"...........===..",
"...........===..",
"................",
" .............. "
};
