/* XPM */
static const char *LOAD_FIRING_SPIKES_DISABLED_16_XPM[] = {
"16 16 7 1",
"  c None",
"# c #A7A7A7",
"+ c #B7B7B7",
". c #E4E4E4",
"@ c #BDBDBD",
"- c #F7F7F7",
", c #777777",
" ++##########   ",
" #.++.......#   ",
" #...++@@@@@#   ",
" #....+----@@   ",
" #....+----@-@  ",
" #....+----@@@@ ",
" #....+-------@ ",
" #....+-,,,,,-@ ",
" #....+-,,----@ ",
" #....+-,,----@ ",
" #....+-,,,,--@ ",
" #....+-,,----@ ",
" #....+-,,----@ ",
" ++...+-------@ ",
"   ++.+@@@@@@@@ ",
"     ++         "
};
