/* XPM */
static const char *MARK_24_XPM[] = {
"24 24 4 1",
"  c None",
"# c #00761D",
"+ c #009923",
". c #1ADF2B",
"      #                 ",
"      ##                ",
"      #.#               ",
"      #..#              ",
"      #...#             ",
"      #....#            ",
"      #.....#           ",
"      #......#          ",
"      #.......#         ",
"      #........#        ",
"      #.........#       ",
"      #..........#      ",
"      #......+###++     ",
"      #.......#         ",
"      #...#...#         ",
"      #..# #...#        ",
"      #.#  #...#        ",
"      #+    #...#       ",
"      +     #...#       ",
"             #...#      ",
"             #...#      ",
"              #..#      ",
"              +##       ",
"                        "
};
