/* XPM */
static const char *NEURITIC_FIELDS_16_XPM[] = {
"16 16 7 1",
"  c None",
". c #000000",
"= c #00FF00",
"$ c #008000",
"% c #0080FF",
"# c #0050A0",
"@ c #FF0000",
" .............. ",
".....%%%%%%%%%..",
"....%#......%%..",
"...%%%%%%%%%.%..",
"...%#......%%...",
"...%%%%%%%%%....",
"....===========.",
"...=$........==.",
"..=.$.......=.=.",
".===========..=.",
".=..$.@@@..=..=.",
".=..$$@@@$$=$$=.",
".=.$..@@@..=.=..",
".=$........==...",
".===========....",
" .............. "
};
