/* XPM */
static const char *OPEN_MODEL_24_XPM[] = {
"24 24 7 1",
"  c None",
"# c #8B5C00",
"+ c #A97D26",
". c #FAD894",
"@ c #225D8D",
"= c #1C79C1",
"- c #38C5FF",
"  ++###############     ",
"  #.++............#     ",
"  #...++..........#     ",
"  #.....++........#     ",
"  #......+........#     ",
"  #......+........#     ",
"  #......+........#     ",
"  #......+........#     ",
"  #......+........#     ",
"  #......+........#     ",
"  #......+........=     ",
"  #......+........@=    ",
"  #......+........@-@   ",
"  #......+..@@@@@@@--@  ",
"  #......+..@---------@ ",
"  #......+..@----------@",
"  #......+..@---------@ ",
"  #......+..@@@@@@@--@  ",
"  #......+........@-@   ",
"  #......+........@=    ",
"  ++.....+########=     ",
"    ++...+              ",
"      ++.+              ",
"        ++              "
};
