/* XPM */
static const char *ORTHOGRAPHIC_16_XPM[] = {
"16 16 3 1",
"  c None",
". c #000000",
"# c #FFFF90",
" .............. ",
"................",
"......########..",
".....##.....##..",
"....#.#....#.#..",
"...#..#...#..#..",
"..########...#..",
"..#...#..#...#..",
"..#...#..#...#..",
"..#...########..",
"..#..#...#..#...",
"..#.#....#.#....",
"..##.....##.....",
"..########......",
"................",
" .............. "
};
