/* XPM */
static const char *ORTHOGRAPHIC_24_XPM[] = {
"24 24 3 1",
"  c None",
". c #000000",
"# c #FFFF90",
"  ....................  ",
" ...................... ",
"........................",
".........############...",
"........##.........##...",
".......#.#........#.#...",
"......#..#.......#..#...",
".....#...#......#...#...",
"....#....#.....#....#...",
"...############.....#...",
"...#.....#....#.....#...",
"...#.....#....#.....#...",
"...#.....#....#.....#...",
"...#.....#....#.....#...",
"...#.....############...",
"...#....#.....#....#....",
"...#...#......#...#.....",
"...#..#.......#..#......",
"...#.#........#.#.......",
"...##.........##........",
"...############.........",
"........................",
" ...................... ",
"  ....................  "
};
