/* XPM */
static const char *PASTE_24_XPM[] = {
"24 24 6 1",
"  c None",
". c #B77340",
"# c #915433",
"- c #FFFFFF",
"@ c #809191",
"= c #DEDEE4",
"          @@@@          ",
"   ######@@==@@######   ",
"   #...@@@====@@@...#   ",
"   #..@==========@..#   ",
"   #..@==========@..#   ",
"   #..############..#   ",
"   #.......@@@@@@@@.#   ",
"   #.......@------@@#   ",
"   #.......@------@-@   ",
"   #.......@------@--@  ",
"   #.......@------@---@ ",
"   #.......@------@@@@@@",
"   #.......@-----------@",
"   #.......@-----------@",
"   #.......@-----------@",
"   #.......@-----------@",
"   #.......@-----------@",
"   #.......@-----------@",
"   #.......@-----------@",
"   #.......@-----------@",
"   #.......@@@@@@@@@@@@@",
"   #................#   ",
"   #................#   ",
"   ##################   "
};
