/* XPM */
static const char *PAUSE_XPM[] = {
"18 18 4 1",
"  c None",
". c #FF7F4C",
"# c #A52E00",
"+ c #D63C00",
"                  ",
"                  ",
"   +###+  +###+   ",
"   #...#  #...#   ",
"   #...#  #...#   ",
"   #...#  #...#   ",
"   #...#  #...#   ",
"   #...#  #...#   ",
"   #...#  #...#   ",
"   #...#  #...#   ",
"   #...#  #...#   ",
"   #...#  #...#   ",
"   #...#  #...#   ",
"   #...#  #...#   ",
"   +###+  +###+   ",
"                  ",
"                  ",
"                  "
};
