/* XPM */
static const char *REPEAT_24_XPM[] = {
"24 24 4 1",
"  c None",
"# c #225D8D",
"+ c #1C79C1",
". c #38C5FF",
"                        ",
"                        ",
"  +########             ",
"   #......#   +###      ",
"    #.....#   #...#     ",
"    #+....#   #....#    ",
"   .+.....#   #....#    ",
"   #...+..#    #....#   ",
"   #...##.#     #...#   ",
"  +...#+ ##     #....+  ",
"  #...+   +      +...#  ",
"  #...#          #...#  ",
"  #...#          #...#  ",
"  #...#          #...#  ",
"  +....#        #....+  ",
"   #...+.      .+...#   ",
"   #....+#    #+....#   ",
"    #.....####.....#    ",
"     #............#     ",
"      #..........#      ",
"       ##......##       ",
"         ######         ",
"                        ",
"                        "
};
