/* XPM */
static const char *REPORT_DISABLED_XPM[] = {
"13 13 2 1",
"  c None",
"# c #777777",
"#############",
"#############",
"##         ##",
"##         ##",
"##         ##",
"##   ###   ##",
"##   ###   ##",
"##   ###   ##",
"##         ##",
"##         ##",
"##         ##",
"#############",
"#############"
};
