/* XPM */
static const char *RESET_SETTINGS_16_XPM[] = {
"16 16 7 1",
"  c None",
"# c #809191",
"+ c #ACACAF",
". c #DEDEE4",
"@ c #720000",
"$ c #891A23",
"- c #FF1111",
"                ",
"       ##       ",
"   ## #..# ##   ",
"  #+.##..##.+#  ",
"  #...+..+...#  ",
"   #........#   ",
"  ##+..##..+##  ",
" #....#  #....# ",
" #....#  #....# ",
"  ##+..##..$##  ",
"   #......$@#   ",
"  #...+..@-@@@@@",
"  #+.##.@------@",
"   ## #..@-@@@@@",
"       ## $@    ",
"           $    "
};
