/* XPM */
static const char *RESET_16_XPM[] = {
"16 16 6 1",
"  c None",
"# c #809191",
". c #FFFFFF",
"@ c #720000",
"$ c #891A23",
"- c #FF1111",
"  #########     ",
"  #.......##    ",
"  #.......#.#   ",
"  #.......####  ",
"  #..........#  ",
"  #..........#  ",
"  #..........#  ",
"  #..........#  ",
"  #..........#  ",
"  #........$.#  ",
"  #.......$@.#  ",
"  #......@-@@@@@",
"  #.....@------@",
"  #......@-@@@@@",
"  #.......$@.#  ",
"  #########$##  "
};
