/* XPM */
static const char *RESET_DISABLED_24_XPM[] = {
"24 24 6 1",
"  c None",
"# c #BDBDBD",
". c #F7F7F7",
"@ c #888888",
"$ c #959595",
"- c #A3A3A3",
"   #############        ",
"   #...........##       ",
"   #...........#.#      ",
"   #...........#..#     ",
"   #...........#...#    ",
"   #...........######   ",
"   #................#   ",
"   #................#   ",
"   #................#   ",
"   #................#   ",
"   #................#   ",
"   #................#   ",
"   #................#   ",
"   #.............$..#   ",
"   #............$@..#   ",
"   #...........@-@..#   ",
"   #..........@--@@@@@@@",
"   #.........@---------@",
"   #........@----------@",
"   #.........@---------@",
"   #..........@--@@@@@@@",
"   #...........@-@..#   ",
"   #............$@..#   ",
"   ##############$###   "
};
