/* XPM */
static const char *ROTATE_X_24_XPM[] = {
"24 24 2 1",
"  c None",
"# c #600000",
"                        ",
"                        ",
"                        ",
"                        ",
"                        ",
"                        ",
"                        ",
"                        ",
"                        ",
"                        ",
"                        ",
"                        ",
"                        ",
"                        ",
"                        ",
"                        ",
"                ##    ##",
"                ###  ###",
"                 ###### ",
"                  ####  ",
"                  ####  ",
"                 ###### ",
"                ###  ###",
"                ##    ##"
};
