/* XPM */
static const char *ROTATE_Y_16_XPM[] = {
"16 16 2 1",
"  c None",
"# c #003000",
"                ",
"                ",
"                ",
"                ",
"                ",
"                ",
"                ",
"                ",
"                ",
"                ",
"          ##  ##",
"          ##  ##",
"           #### ",
"            ##  ",
"            ##  ",
"            ##  "
};
