/* XPM */
static const char *ROTATE_Y_24_XPM[] = {
"24 24 2 1",
"  c None",
"# c #003000",
"                        ",
"                        ",
"                        ",
"                        ",
"                        ",
"                        ",
"                        ",
"                        ",
"                        ",
"                        ",
"                        ",
"                        ",
"                        ",
"                        ",
"                        ",
"                ##    ##",
"                ###  ###",
"                 ##  ## ",
"                 ###### ",
"                  ####  ",
"                   ##   ",
"                   ##   ",
"                   ##   ",
"                   ##   "
};
