/* XPM */
static const char *ROTATE_24_XPM[] = {
"24 24 7 1",
"  c None",
"# c #00761D",
"+ c #009923",
". c #1ADF2B",
"@ c #32A84F",
"$ c #32CB55",
"= c #4CFF5D",
"                        ",
"         .####.         ",
"        #+....+#     +  ",
"      +#........##  ##  ",
"     #............##.#  ",
"    #.....+##+....+..#  ",
"   #.....#.  .#......#  ",
"   #....#      #+....#  ",
"   #...#       #.....#  ",
"   +###       #......#  ",
"             +########  ",
"                        ",
"                        ",
"  ########+             ",
"  #......#       @@@$   ",
"  #.....#       @===@   ",
"  #....+#      @====@   ",
"  #......#.  .#=====@   ",
"  #..+....+##+.====@    ",
"  #.##.........===@     ",
"  ##  ##.......=@$      ",
"  +     #+....+@        ",
"         .####.         ",
"                        "
};
