/* XPM */
static const char *ROTATE_Z_16_XPM[] = {
"16 16 2 1",
"  c None",
"# c #000080",
"                ",
"                ",
"                ",
"                ",
"                ",
"                ",
"                ",
"                ",
"                ",
"                ",
"          ######",
"              ##",
"            ### ",
"           ###  ",
"          ##    ",
"          ######"
};
