/* XPM */
static const char *ROTATE_3D_16_XPM[] = {
"16 16 2 1",
"  c None",
"# c #400040",
"                ",
"                ",
"                ",
"                ",
"                ",
"                ",
"                ",
"                ",
"                ",
"                ",
"           #### ",
"          ##  ##",
"             ## ",
"             ## ",
"          ##  ##",
"           #### "
};
