/* XPM */
static const char *ROTATE_Z_24_XPM[] = {
"24 24 2 1",
"  c None",
"# c #000080",
"                        ",
"                        ",
"                        ",
"                        ",
"                        ",
"                        ",
"                        ",
"                        ",
"                        ",
"                        ",
"                        ",
"                        ",
"                        ",
"                        ",
"                        ",
"                ########",
"                ########",
"                     ## ",
"                    ##  ",
"                   ##   ",
"                  ##    ",
"                 ##     ",
"                ########",
"                ########"
};
