/* XPM */
static const char *ROTATE_X_16_XPM[] = {
"16 16 2 1",
"  c None",
"# c #600000",
"                ",
"                ",
"                ",
"                ",
"                ",
"                ",
"                ",
"                ",
"                ",
"                ",
"          ##  ##",
"          ### ##",
"            ### ",
"           ###  ",
"          ## ###",
"          ##  ##"
};
