/* XPM */
static const char *ROTATE_2D_24_XPM[] = {
"24 24 2 1",
"  c None",
"# c #404000",
"                        ",
"                        ",
"                        ",
"                        ",
"                        ",
"                        ",
"                        ",
"                        ",
"                        ",
"                        ",
"                        ",
"                        ",
"                        ",
"                        ",
"                        ",
"                  ####  ",
"                 ###### ",
"                ##    ##",
"                      ##",
"                   #### ",
"                  ####  ",
"                 ##     ",
"                ########",
"                ########"
};
