/* XPM */
static const char *SHOW_CLIPPED_24_XPM[] = {
"24 24 6 1",
"  c None",
". c #000000",
"# c #FFFFFF",
"+ c #E02020",
"- c #60B0FF",
"= c #FFFF90",
"  ....................  ",
" ...................... ",
"........................",
"...##.##.##.##.##.##....",
"...#................#...",
"....................#...",
"...#..........+++.......",
"...#..........+++...#...",
"..............+++...#...",
"...#....................",
"...#................#...",
"....................#...",
"...#..---...............",
"...#..---...........#...",
"......---...===.....#...",
"...#........===.........",
"...#........===.....#...",
"....................#...",
"...#....................",
"...#................#...",
"....##.##.##.##.##.##...",
"........................",
" ...................... ",
"  ....................  "
};
