/* XPM */
static const char *SHOW_CLIPPED_16_XPM[] = {
"16 16 5 1",
"  c None",
". c #000000",
"# c #FFFFFF",
"+ c #E02020",
"= c #60B0FF",
" .............. ",
"................",
"..##.##.##.##...",
"..#..........#..",
".........+++.#..",
"..#......+++....",
"..#......+++.#..",
".............#..",
"..#.............",
"..#.===......#..",
"....===......#..",
"..#.===.........",
"..#..........#..",
"...##.##.##.##..",
"................",
" .............. "
};
