/* XPM */
static const char *SHOW_MARKED_24_XPM[] = {
"24 24 5 1",
"  c None",
". c #000000",
"# c #FF8000",
"+ c #60B0FF",
"= c #FFFF90",
"  ....................  ",
" .++................... ",
"....++..................",
"......++..########......",
"........++#......#......",
"..........#.####.#......",
"..........#.#..#.#......",
"..........#.#..#.#......",
"..........#.####.#......",
"..........#......#++....",
"..........########..++..",
"......................++",
"........................",
".......########......===",
".......#......#...===...",
".......#.####.#===......",
".......#.#..#.#.........",
".......#.#..#.#.........",
"......=#.####.#.........",
"...===.#......#.........",
"===....########.........",
"........................",
" ...................... ",
"  ....................  "
};
