/* XPM */
static const char *SNAP_DISABLED_16_XPM[] = {
"16 16 6 1",
"  c None",
". c #777777",
"x c #9D9D9D",
"y c #C2C2C2",
"z c #ADADAD",
"w c #F7F7F7",
" .............. ",
"........z.......",
"........z.......",
"....www.z.......",
".....ww.z.......",
"....w.w.z.......",
"...w....z.......",
"..w.....z.......",
"..w....yx.......",
"......y..x......",
".....y....x.....",
"....y......x....",
"...y........x...",
"..y..........x..",
"................",
" .............. "
};
