/* XPM */
static const char *SNAP_24_XPM[] = {
"24 24 6 1",
"  c None",
". c #000000",
"x c #FF0000",
"y c #00FF00",
"z c #0080FF",
"w c #FFFFFF",
"  ....................  ",
" ...................... ",
"............z...........",
"............z...........",
"............z...........",
".....wwwww..z...........",
".......www..z...........",
".......www..z...........",
".....ww..w..z...........",
"....w....w..z...........",
"....w.......z...........",
"...w........z...........",
"...w.......yx...........",
"...w......y..x..........",
".........y....x.........",
"........y......x........",
".......y........x.......",
"......y..........x......",
".....y............x.....",
"....y..............x....",
"...y................x...",
"........................",
" ...................... ",
"  ....................  "
};
