/* XPM */
static const char *STAR_XPM[] = {
"13 13 4 1",
"  c None",
"# c #000000",
"+ c #404040",
". c #808080",
"      #      ",
"     +.+     ",
"     #.#     ",
"    #...#    ",
"++##+...+##++",
"#...........#",
" #.........# ",
"  #+.....+#  ",
"   #.....#   ",
"   +.....+   ",
"  +...#...+  ",
"  #.#+ +#.#  ",
"  ##     ##  "
};
