/* XPM */
static const char *SUMMARY_DISABLED_XPM[] = {
"13 13 4 1",
"  c None",
"# c #777777",
"+ c #979797",
". c #B7B7B7",
"    +###+    ",
"  +#++  +#+  ",
" +++      ++ ",
" #.+  ++  +# ",
"+.+  +..+  ++",
"#..++..+  +.#",
"#.....+  +..#",
"#....+  +...#",
"+....+  +...+",
" #....++...# ",
" ++..+  +.++ ",
"  +#.+  +#+  ",
"    +###+    "
};
