/* XPM */
static const char *SYN_DOTS_16_XPM[] = {
"16 16 6 1",
"  c None",
". c #000000",
"= c #4B8A4B",
"$ c #264526",
"@ c #FF0000",
"% c #FF00FF",
" .............. ",
"....===========.",
"...=$........==.",
"..=.$.......=.=.",
".===========..=.",
".=..$......=..=.",
".=..$..%%%.=..=.",
".=..$..%%%.=..=.",
".=..$..%%%.=..=.",
".=.@@@.....=..=.",
".=.@@@$$$$$=$$=.",
".=.@@@.....=.=..",
".=$........==...",
".===========....",
"................",
" .............. "
};
