/* XPM */
static const char *SYN_DOTS_24_XPM[] = {
"24 24 6 1",
"  c None",
". c #000000",
"= c #4B8A4B",
"$ c #264526",
"@ c #FF0000",
"% c #FF00FF",
"  ....................  ",
" ...................... ",
"......================..",
".....=$.............==..",
"....=.$............=.=..",
"...=..$...........=..=..",
"..================...=..",
"..=...$..........=...=..",
"..=...$..........=...=..",
"..=...$..........=...=..",
"..=...$....%%%...=...=..",
"..=...$....%%%...=...=..",
"..=...$....%%%...=...=..",
"..=...$..........=...=..",
"..=...@@@........=...=..",
"..=...@@@........=...=..",
"..=...@@@$$$$$$$$=$$$=..",
"..=..$...........=..=...",
"..=.$............=.=....",
"..=$.............==.....",
"..================......",
"........................",
" ...................... ",
"  ....................  "
};
