/* XPM */
static const char *TO_SYNAPSE_24_XPM[] = {
"24 24 3 1",
"  c None",
"# c #000000",
". c #B2B2B2",
"                        ",
"                        ",
"                        ",
" #####                  ",
"#######                 ",
"##...##.                ",
"##.   ..##   ##         ",
"######  ##.  ##.        ",
" ###### ### ###.        ",
"  ...##.###.###.##   ## ",
"##   ##. #####..##.  ##.",
"#######.  ####. ###  ##.",
" #####..   ##.. #### ##.",
"  .....    ##.  #######.",
"           ##.  ##.####.",
"           ##.  ##. ###.",
"            ..  ##. ###.",
"                ##.  ##.",
"                ##.  ##.",
"                 ..   ..",
"                        ",
"                        ",
"                        ",
"                        "
};
