/* XPM */
static const char *TO_SYNAPSE_16_XPM[] = {
"16 16 3 1",
"  c None",
"# c #000000",
". c #B2B2B2",
"                ",
"                ",
" ##             ",
"# .#            ",
"#.  .#   #      ",
" ##  #.  #.     ",
"  .#  # # .#  # ",
"#  #.  # . ## #.",
" ## .  #.  ##.#.",
"  ..   #.  #.##.",
"       #.  #.##.",
"        .  #. #.",
"           #. #.",
"            .  .",
"                ",
"                "
};
