/* XPM */
static const char *UNDO_DISABLED_24_XPM[] = {
"24 24 4 1",
"  c None",
"# c #9F9F9F",
"+ c #AAAAAA",
". c #C8C8C8",
"                        ",
"                        ",
"            +###+       ",
"          ##.....##     ",
"         #.........#    ",
"  +    ##...........#   ",
"  ##  #.............#   ",
"  #.##...............+  ",
"  #..+......###......#  ",
"  #......##+   #.....#  ",
"  #....+#       #....#  ",
"  #.....#        #...#  ",
"  #......#       +...#  ",
"  ########+      +...#  ",
"                 +...+  ",
"                 #..#   ",
"                +...+   ",
"               +...+    ",
"              #..++     ",
"             #..#.      ",
"            +.#+        ",
"            ++          ",
"                        ",
"                        "
};
