/* XPM */
static const char *UNDO_DISABLED_16_XPM[] = {
"16 16 4 1",
"  c None",
"# c #9F9F9F",
"+ c #AAAAAA",
". c #C8C8C8",
"                ",
"        +##+    ",
"      ##....+.  ",
" +   #.......+  ",
" ## #.........+ ",
" #.#....++....# ",
" #....##  #...# ",
" #...#     +..# ",
" #....#    +..# ",
" ######+   +..+ ",
"           +.#  ",
"          #..+  ",
"         #..#   ",
"        +.#+    ",
"        ++      ",
"                "
};
