/* XPM */
static const char *VIZ_16_XPM[] = {
"16 16 10 1",
"  c None",
"# c #300000",
"V c #A00000",
"v c #FF0000",
"+ c #000030",
"I c #0820A0",
"i c #1840FF",
"= c #302000",
"Z c #A08000",
"z c #FFD800",
"                ",
"                ",
"                ",
"### ###+++======",
"#vV#Vv#iI+zzzzz=",
"#vV#Vv#iI+ZZZZz=",
"#vvVvv#iI+===zZ=",
"#VvVvV#iI+ =zZ= ",
" #vVv#+iI+=zZ=  ",
" #vvv#+iI+zZ=== ",
" #VvV#+iI+zzzzz=",
"  #v# +II+ZZZZZ=",
"  ### ++++======",
"                ",
"                ",
"                "
};
