/* XPM */
static const char *VIZ_48_XPM[] = {
"48 48 10 1",
"  c None",
"# c #300000",
"V c #A00000",
"v c #FF0000",
"+ c #000030",
"I c #0820A0",
"i c #1840FF",
"= c #302000",
"Z c #A08000",
"z c #FFD800",
"                                                ",
"                                                ",
"                                                ",
"                                                ",
"                                                ",
"                                                ",
"                                                ",
"                                                ",
"                                                ",
" ######       ######+++++++++ ================= ",
"#vvvvvV#     #VvvvvV#iiiiiIII+zzzzzzzzzzzzzzzzz=",
"#vvvvvV#     #VvvvvV#iiiiiIII+zzzzzzzzzzzzzzzzz=",
"#vvvvvV#     #VvvvvV#iiiiiIII+zzzzzzzzzzzzzzzzz=",
"#vvvvvV#     #VvvvvV#iiiiiIII+zzzzzzzzzzzzzzzzz=",
"#vvvvvvV#   #VvvvvvV#iiiiiIII+zzzzzzzzzzzzzzzzz=",
"#vvvvvvV#   #VvvvvVV#iiiiiIII+zzzzzzzzzzzzzzzzz=",
"#VvvvvvV#   #VvvvvVV#iiiiiIII+zzzzzzzzzzzzzzzzz=",
"#VvvvvvV#   #VvvvvVV#iiiiiIII+ZZZZZZZZZZzzzzzzz=",
"#VvvvvvvV# #VvvvvVVV#iiiiiIII+ZZZZZZZZZzzzzzzzZ=",
"#VvvvvvvV# #VvvvvVVV#iiiiiIII+=ZZZZZZZzzzzzzzZZ=",
" #VvvvvvV# #VvvvvVV#iiiiiiIII+ ======zzzzzzzZZZ=",
" #VvvvvvV# #VvvvVVV#iiiiiiIII+     =zzzzzzzZZZ= ",
" #VvvvvvvV#VvvvvVVV#iiiiiiIII+    =zzzzzzzZZZ=  ",
"  #VvvvvvV#VvvvvVV#iiiiiiiIII+   =zzzzzzzZZZ=   ",
"  #VvvvvvV#VvvvVVV#iiiiiiiIII+  =zzzzzzzZZZ=    ",
"  #VvvvvvV#VvvvVVV#iiiiiiiIII+ =zzzzzzzZZZ=     ",
"   #VvvvvvVvvvvVV#+iiiiiiiIII+=zzzzzzzZZZ=      ",
"   #VvvvvvVvvvVVV#+iiiiiiiIII+zzzzzzzZZZ======  ",
"   #VvvvvvVvvvVVV#+iiiiiiiIII+zzzzzzzzzzzzzzzz= ",
"    #VvvvvvvvvVV# +iiiiiiiIII+zzzzzzzzzzzzzzzzz=",
"    #VvvvvvvvVVV# +iiiiiiiIII+zzzzzzzzzzzzzzzzz=",
"    #VvvvvvvvVVV# +iiiiiiiIII+zzzzzzzzzzzzzzzzz=",
"     #VvvvvvvVV#  +iiiiiiiIII+zzzzzzzzzzzzzzzzz=",
"     #VvvvvvVVV#  +iiiiiiIIII+zzzzzzzzzzzzzzzzz=",
"     #VvvvvvVVV#  +iiiiiIIIII+zzzzzzzzzzzzzzzzz=",
"      #VvvvVVV#   +IIIIIIIIII+ZZZZZZZZZZZZZZZZZ=",
"      #VVVVVVV#   +IIIIIIIIII+ZZZZZZZZZZZZZZZZZ=",
"      #VVVVVVV#   +IIIIIIIIII+ZZZZZZZZZZZZZZZZZ=",
"       #######     ++++++++++ ================= ",
"                                                ",
"                                                ",
"                                                ",
"                                                ",
"                                                ",
"                                                ",
"                                                ",
"                                                ",
"                                                "
};
