/* XPM */
static const char *ZOOM_OUT_XPM[] = {
"18 18 4 1",
"  c None",
"# c #225D8D",
"+ c #1C79C1",
". c #38C5FF",
"                  ",
"                  ",
"                  ",
"                  ",
"                  ",
"                  ",
" +#############+  ",
" #.............#  ",
" #.............#  ",
" #.............#  ",
" +#############+  ",
"                  ",
"                  ",
"                  ",
"                  ",
"                  ",
"                  ",
"                  "
};
