/* XPM */
static const char *ZOOM_16_XPM[] = {
"16 16 4 1",
"  c None",
"# c #00761D",
"+ c #009923",
". c #1ADF2B",
"       #        ",
"      #.#       ",
"     #...#      ",
"    #.....#     ",
"   +.......+    ",
"  +###...###+   ",
"     #...#      ",
"     #...#      ",
"     +...+      ",
"      #.#       ",
"      #.#       ",
"      #.#       ",
"    +##.##+     ",
"     +...+      ",
"      #.#       ",
"       #        "
};
